<?xml version="1.0" encoding="iso-8859-1"?>
<!-- Uploaded to: SVG Repo, www.svgrepo.com, Generator: SVG Repo Mixer Tools -->
<svg fill="#000000" version="1.1" id="Layer_1" xmlns="http://www.w3.org/2000/svg" xmlns:xlink="http://www.w3.org/1999/xlink" 
	 viewBox="0 0 512.003 512.003" xml:space="preserve">
<g>
	<g>
		<rect x="90.391" y="325.411" width="150.439" height="78.122"/>
	</g>
</g>
<g>
	<g>
		<rect x="180.782" y="216.945" width="150.439" height="78.122"/>
	</g>
</g>
<g>
	<g>
		<rect x="90.391" y="108.47" width="150.439" height="78.122"/>
	</g>
</g>
<g>
	<g>
		<rect x="271.173" y="325.411" width="150.439" height="78.122"/>
	</g>
</g>
<g>
	<g>
		<rect y="433.876" width="150.439" height="78.122"/>
	</g>
</g>
<g>
	<g>
		<rect x="271.173" y="108.47" width="150.439" height="78.122"/>
	</g>
</g>
<g>
	<g>
		<rect x="361.564" y="0.005" width="150.439" height="78.122"/>
	</g>
</g>
<g>
	<g>
		<rect x="180.782" y="0.005" width="150.439" height="78.122"/>
	</g>
</g>
<g>
	<g>
		<rect x="451.955" y="325.411" width="60.048" height="78.122"/>
	</g>
</g>
<g>
	<g>
		<rect x="451.955" y="108.47" width="60.048" height="78.122"/>
	</g>
</g>
<g>
	<g>
		<rect x="180.782" y="433.876" width="150.439" height="78.122"/>
	</g>
</g>
<g>
	<g>
		<rect x="361.564" y="433.876" width="150.439" height="78.122"/>
	</g>
</g>
<g>
	<g>
		<rect y="0.005" width="150.439" height="78.122"/>
	</g>
</g>
<g>
	<g>
		<rect x="361.564" y="216.945" width="150.439" height="78.122"/>
	</g>
</g>
<g>
	<g>
		<rect y="325.411" width="60.048" height="78.122"/>
	</g>
</g>
<g>
	<g>
		<rect y="216.945" width="150.439" height="78.122"/>
	</g>
</g>
<g>
	<g>
		<rect y="108.47" width="60.048" height="78.122"/>
	</g>
</g>
</svg>